<svg width="24" height="25" viewBox="0 0 24 25" fill="none" xmlns="http://www.w3.org/2000/svg">
<path d="M4.69012 1.02577C4.52568 1.06904 4.41144 1.13828 4.2747 1.27502C4.1345 1.41349 4.06872 1.526 4.02372 1.69909C3.95968 1.94834 4.02718 2.22875 4.20373 2.43992C4.24181 2.48492 5.38421 3.65155 6.7447 5.03281L9.21644 7.54263L9.22509 14.9371L9.23374 22.3315L9.28048 22.4717C9.3878 22.7832 9.61627 23.0048 9.93476 23.1052C10.1027 23.1571 10.4056 23.1606 10.5665 23.1121C10.9127 23.0083 11.1568 22.7729 11.271 22.4353L11.3108 22.3142L11.316 18.0181L11.3195 13.7202H11.4926H11.6657L11.6691 18.0094C11.6743 22.8127 11.6622 22.3609 11.8007 22.624C12.0603 23.1208 12.7561 23.3025 13.2789 23.01C13.426 22.9286 13.5904 22.7538 13.6579 22.6102C13.7704 22.3696 13.7653 22.4267 13.7722 21.132L13.7791 19.9515H15.851H17.9229L17.9281 16.8359L17.9315 13.7202H17.3448H16.7563L16.7511 13.2044C16.7459 12.7111 16.7441 12.6869 16.7078 12.6176C16.687 12.5796 16.6403 12.5242 16.6074 12.4947C16.4966 12.4047 16.4014 12.384 16.0241 12.3753L15.6814 12.3649L15.6762 9.80146C15.671 7.40242 15.6693 7.22933 15.6398 7.10817C15.4096 6.14579 14.6792 5.42054 13.7826 5.26475C13.6562 5.24225 13.3152 5.23879 11.5185 5.23879H9.40164L7.48553 3.27767C6.43141 2.20105 5.52095 1.27675 5.46383 1.22655C5.23362 1.02923 4.95148 0.956531 4.69012 1.02577ZM14.1409 10.9162V13.7202H13.9591H13.7774V10.9162V8.11209H13.9591H14.1409V10.9162Z" fill="black"/>
<path d="M11.3974 1.10353C10.7102 1.16758 10.0854 1.65742 9.85862 2.30651C9.72014 2.70116 9.72014 3.15466 9.85862 3.5493C10.0507 4.10319 10.5423 4.5515 11.1222 4.70035C11.9634 4.91845 12.8306 4.52207 13.2148 3.74143C13.3273 3.51468 13.3724 3.3589 13.3983 3.10792C13.4347 2.76347 13.3741 2.43633 13.2148 2.11438C12.8739 1.42375 12.1694 1.03257 11.3974 1.10353Z" fill="black"/>
<path d="M18.3505 16.838L18.3557 19.9536L18.8352 19.9519C19.2592 19.9519 19.3285 19.9467 19.4237 19.9173C19.6781 19.8394 19.8685 19.649 19.9602 19.3824L20.0001 19.2682V16.8449V14.4216L19.9585 14.3091C19.846 14.0028 19.6089 13.7951 19.3077 13.7397C19.2523 13.7293 19.0134 13.7206 18.7763 13.7206H18.347L18.3505 16.838Z" fill="black"/>
</svg>
